<svg xmlns="http://www.w3.org/2000/svg" viewBox="0 0 660 660" fill="currentColor"><circle cx="150.0" cy="50.0" r="7.2"/><circle cx="170.0" cy="50.0" r="7.2"/><circle cx="210.0" cy="50.0" r="7.2"/><circle cx="230.0" cy="50.0" r="7.2"/><circle cx="310.0" cy="50.0" r="7.2"/><circle cx="330.0" cy="50.0" r="7.2"/><circle cx="350.0" cy="50.0" r="7.2"/><circle cx="370.0" cy="50.0" r="7.2"/><circle cx="390.0" cy="50.0" r="7.2"/><circle cx="410.0" cy="50.0" r="7.2"/><circle cx="490.0" cy="50.0" r="7.2"/><circle cx="510.0" cy="50.0" r="7.2"/><circle cx="170.0" cy="70.0" r="7.2"/><circle cx="230.0" cy="70.0" r="7.2"/><circle cx="290.0" cy="70.0" r="7.2"/><circle cx="310.0" cy="70.0" r="7.2"/><circle cx="410.0" cy="70.0" r="7.2"/><circle cx="430.0" cy="70.0" r="7.2"/><circle cx="490.0" cy="70.0" r="7.2"/><circle cx="170.0" cy="90.0" r="7.2"/><circle cx="230.0" cy="90.0" r="7.2"/><circle cx="290.0" cy="90.0" r="7.2"/><circle cx="330.0" cy="90.0" r="7.2"/><circle cx="390.0" cy="90.0" r="7.2"/><circle cx="410.0" cy="90.0" r="7.2"/><circle cx="430.0" cy="90.0" r="7.2"/><circle cx="450.0" cy="90.0" r="7.2"/><circle cx="490.0" cy="90.0" r="7.2"/><circle cx="170.0" cy="110.0" r="7.2"/><circle cx="210.0" cy="110.0" r="7.2"/><circle cx="250.0" cy="110.0" r="7.2"/><circle cx="270.0" cy="110.0" r="7.2"/><circle cx="310.0" cy="110.0" r="7.2"/><circle cx="330.0" cy="110.0" r="7.2"/><circle cx="350.0" cy="110.0" r="7.2"/><circle cx="370.0" cy="110.0" r="7.2"/><circle cx="410.0" cy="110.0" r="7.2"/><circle cx="430.0" cy="110.0" r="7.2"/><circle cx="490.0" cy="110.0" r="7.2"/><circle cx="170.0" cy="130.0" r="7.2"/><circle cx="210.0" cy="130.0" r="7.2"/><circle cx="230.0" cy="130.0" r="7.2"/><circle cx="310.0" cy="130.0" r="7.2"/><circle cx="330.0" cy="130.0" r="7.2"/><circle cx="350.0" cy="130.0" r="7.2"/><circle cx="370.0" cy="130.0" r="7.2"/><circle cx="390.0" cy="130.0" r="7.2"/><circle cx="410.0" cy="130.0" r="7.2"/><circle cx="490.0" cy="130.0" r="7.2"/><circle cx="50.0" cy="150.0" r="7.2"/><circle cx="170.0" cy="150.0" r="7.2"/><circle cx="210.0" cy="150.0" r="7.2"/><circle cx="230.0" cy="150.0" r="7.2"/><circle cx="250.0" cy="150.0" r="7.2"/><circle cx="270.0" cy="150.0" r="7.2"/><circle cx="290.0" cy="150.0" r="7.2"/><circle cx="310.0" cy="150.0" r="7.2"/><circle cx="390.0" cy="150.0" r="7.2"/><circle cx="430.0" cy="150.0" r="7.2"/><circle cx="450.0" cy="150.0" r="7.2"/><circle cx="490.0" cy="150.0" r="7.2"/><circle cx="610.0" cy="150.0" r="7.2"/><circle cx="50.0" cy="170.0" r="7.2"/><circle cx="70.0" cy="170.0" r="7.2"/><circle cx="90.0" cy="170.0" r="7.2"/><circle cx="110.0" cy="170.0" r="7.2"/><circle cx="130.0" cy="170.0" r="7.2"/><circle cx="150.0" cy="170.0" r="7.2"/><circle cx="170.0" cy="170.0" r="7.2"/><circle cx="210.0" cy="170.0" r="7.2"/><circle cx="250.0" cy="170.0" r="7.2"/><circle cx="290.0" cy="170.0" r="7.2"/><circle cx="330.0" cy="170.0" r="7.2"/><circle cx="370.0" cy="170.0" r="7.2"/><circle cx="410.0" cy="170.0" r="7.2"/><circle cx="450.0" cy="170.0" r="7.2"/><circle cx="490.0" cy="170.0" r="7.2"/><circle cx="510.0" cy="170.0" r="7.2"/><circle cx="530.0" cy="170.0" r="7.2"/><circle cx="550.0" cy="170.0" r="7.2"/><circle cx="570.0" cy="170.0" r="7.2"/><circle cx="590.0" cy="170.0" r="7.2"/><circle cx="610.0" cy="170.0" r="7.2"/><circle cx="210.0" cy="190.0" r="7.2"/><circle cx="250.0" cy="190.0" r="7.2"/><circle cx="270.0" cy="190.0" r="7.2"/><circle cx="290.0" cy="190.0" r="7.2"/><circle cx="330.0" cy="190.0" r="7.2"/><circle cx="390.0" cy="190.0" r="7.2"/><circle cx="430.0" cy="190.0" r="7.2"/><circle cx="50.0" cy="210.0" r="7.2"/><circle cx="130.0" cy="210.0" r="7.2"/><circle cx="170.0" cy="210.0" r="7.2"/><circle cx="190.0" cy="210.0" r="7.2"/><circle cx="210.0" cy="210.0" r="7.2"/><circle cx="230.0" cy="210.0" r="7.2"/><circle cx="270.0" cy="210.0" r="7.2"/><circle cx="310.0" cy="210.0" r="7.2"/><circle cx="330.0" cy="210.0" r="7.2"/><circle cx="390.0" cy="210.0" r="7.2"/><circle cx="410.0" cy="210.0" r="7.2"/><circle cx="450.0" cy="210.0" r="7.2"/><circle cx="470.0" cy="210.0" r="7.2"/><circle cx="490.0" cy="210.0" r="7.2"/><circle cx="510.0" cy="210.0" r="7.2"/><circle cx="530.0" cy="210.0" r="7.2"/><circle cx="550.0" cy="210.0" r="7.2"/><circle cx="610.0" cy="210.0" r="7.2"/><circle cx="70.0" cy="230.0" r="7.2"/><circle cx="130.0" cy="230.0" r="7.2"/><circle cx="150.0" cy="230.0" r="7.2"/><circle cx="210.0" cy="230.0" r="7.2"/><circle cx="230.0" cy="230.0" r="7.2"/><circle cx="250.0" cy="230.0" r="7.2"/><circle cx="270.0" cy="230.0" r="7.2"/><circle cx="330.0" cy="230.0" r="7.2"/><circle cx="350.0" cy="230.0" r="7.2"/><circle cx="370.0" cy="230.0" r="7.2"/><circle cx="390.0" cy="230.0" r="7.2"/><circle cx="410.0" cy="230.0" r="7.2"/><circle cx="490.0" cy="230.0" r="7.2"/><circle cx="510.0" cy="230.0" r="7.2"/><circle cx="530.0" cy="230.0" r="7.2"/><circle cx="550.0" cy="230.0" r="7.2"/><circle cx="570.0" cy="230.0" r="7.2"/><circle cx="590.0" cy="230.0" r="7.2"/><circle cx="610.0" cy="230.0" r="7.2"/><circle cx="70.0" cy="250.0" r="7.2"/><circle cx="110.0" cy="250.0" r="7.2"/><circle cx="170.0" cy="250.0" r="7.2"/><circle cx="210.0" cy="250.0" r="7.2"/><circle cx="230.0" cy="250.0" r="7.2"/><circle cx="250.0" cy="250.0" r="7.2"/><circle cx="270.0" cy="250.0" r="7.2"/><circle cx="310.0" cy="250.0" r="7.2"/><circle cx="330.0" cy="250.0" r="7.2"/><circle cx="350.0" cy="250.0" r="7.2"/><circle cx="410.0" cy="250.0" r="7.2"/><circle cx="450.0" cy="250.0" r="7.2"/><circle cx="470.0" cy="250.0" r="7.2"/><circle cx="490.0" cy="250.0" r="7.2"/><circle cx="510.0" cy="250.0" r="7.2"/><circle cx="530.0" cy="250.0" r="7.2"/><circle cx="610.0" cy="250.0" r="7.2"/><circle cx="70.0" cy="270.0" r="7.2"/><circle cx="90.0" cy="270.0" r="7.2"/><circle cx="110.0" cy="270.0" r="7.2"/><circle cx="150.0" cy="270.0" r="7.2"/><circle cx="190.0" cy="270.0" r="7.2"/><circle cx="270.0" cy="270.0" r="7.2"/><circle cx="290.0" cy="270.0" r="7.2"/><circle cx="310.0" cy="270.0" r="7.2"/><circle cx="390.0" cy="270.0" r="7.2"/><circle cx="410.0" cy="270.0" r="7.2"/><circle cx="430.0" cy="270.0" r="7.2"/><circle cx="450.0" cy="270.0" r="7.2"/><circle cx="490.0" cy="270.0" r="7.2"/><circle cx="510.0" cy="270.0" r="7.2"/><circle cx="550.0" cy="270.0" r="7.2"/><circle cx="590.0" cy="270.0" r="7.2"/><circle cx="610.0" cy="270.0" r="7.2"/><circle cx="170.0" cy="290.0" r="7.2"/><circle cx="190.0" cy="290.0" r="7.2"/><circle cx="210.0" cy="290.0" r="7.2"/><circle cx="290.0" cy="290.0" r="7.2"/><circle cx="310.0" cy="290.0" r="7.2"/><circle cx="350.0" cy="290.0" r="7.2"/><circle cx="390.0" cy="290.0" r="7.2"/><circle cx="450.0" cy="290.0" r="7.2"/><circle cx="470.0" cy="290.0" r="7.2"/><circle cx="590.0" cy="290.0" r="7.2"/><circle cx="150.0" cy="310.0" r="7.2"/><circle cx="190.0" cy="310.0" r="7.2"/><circle cx="210.0" cy="310.0" r="7.2"/><circle cx="230.0" cy="310.0" r="7.2"/><circle cx="270.0" cy="310.0" r="7.2"/><circle cx="290.0" cy="310.0" r="7.2"/><circle cx="310.0" cy="310.0" r="7.2"/><circle cx="330.0" cy="310.0" r="7.2"/><circle cx="350.0" cy="310.0" r="7.2"/><circle cx="370.0" cy="310.0" r="7.2"/><circle cx="410.0" cy="310.0" r="7.2"/><circle cx="450.0" cy="310.0" r="7.2"/><circle cx="490.0" cy="310.0" r="7.2"/><circle cx="510.0" cy="310.0" r="7.2"/><circle cx="530.0" cy="310.0" r="7.2"/><circle cx="550.0" cy="310.0" r="7.2"/><circle cx="570.0" cy="310.0" r="7.2"/><circle cx="590.0" cy="310.0" r="7.2"/><circle cx="610.0" cy="310.0" r="7.2"/><circle cx="70.0" cy="330.0" r="7.2"/><circle cx="110.0" cy="330.0" r="7.2"/><circle cx="130.0" cy="330.0" r="7.2"/><circle cx="170.0" cy="330.0" r="7.2"/><circle cx="190.0" cy="330.0" r="7.2"/><circle cx="230.0" cy="330.0" r="7.2"/><circle cx="350.0" cy="330.0" r="7.2"/><circle cx="550.0" cy="330.0" r="7.2"/><circle cx="570.0" cy="330.0" r="7.2"/><circle cx="610.0" cy="330.0" r="7.2"/><circle cx="70.0" cy="350.0" r="7.2"/><circle cx="90.0" cy="350.0" r="7.2"/><circle cx="110.0" cy="350.0" r="7.2"/><circle cx="150.0" cy="350.0" r="7.2"/><circle cx="190.0" cy="350.0" r="7.2"/><circle cx="210.0" cy="350.0" r="7.2"/><circle cx="250.0" cy="350.0" r="7.2"/><circle cx="330.0" cy="350.0" r="7.2"/><circle cx="370.0" cy="350.0" r="7.2"/><circle cx="390.0" cy="350.0" r="7.2"/><circle cx="410.0" cy="350.0" r="7.2"/><circle cx="470.0" cy="350.0" r="7.2"/><circle cx="490.0" cy="350.0" r="7.2"/><circle cx="530.0" cy="350.0" r="7.2"/><circle cx="590.0" cy="350.0" r="7.2"/><circle cx="610.0" cy="350.0" r="7.2"/><circle cx="110.0" cy="370.0" r="7.2"/><circle cx="150.0" cy="370.0" r="7.2"/><circle cx="170.0" cy="370.0" r="7.2"/><circle cx="230.0" cy="370.0" r="7.2"/><circle cx="250.0" cy="370.0" r="7.2"/><circle cx="290.0" cy="370.0" r="7.2"/><circle cx="310.0" cy="370.0" r="7.2"/><circle cx="330.0" cy="370.0" r="7.2"/><circle cx="390.0" cy="370.0" r="7.2"/><circle cx="430.0" cy="370.0" r="7.2"/><circle cx="470.0" cy="370.0" r="7.2"/><circle cx="590.0" cy="370.0" r="7.2"/><circle cx="50.0" cy="390.0" r="7.2"/><circle cx="130.0" cy="390.0" r="7.2"/><circle cx="210.0" cy="390.0" r="7.2"/><circle cx="250.0" cy="390.0" r="7.2"/><circle cx="350.0" cy="390.0" r="7.2"/><circle cx="370.0" cy="390.0" r="7.2"/><circle cx="390.0" cy="390.0" r="7.2"/><circle cx="410.0" cy="390.0" r="7.2"/><circle cx="490.0" cy="390.0" r="7.2"/><circle cx="510.0" cy="390.0" r="7.2"/><circle cx="530.0" cy="390.0" r="7.2"/><circle cx="550.0" cy="390.0" r="7.2"/><circle cx="590.0" cy="390.0" r="7.2"/><circle cx="610.0" cy="390.0" r="7.2"/><circle cx="130.0" cy="410.0" r="7.2"/><circle cx="170.0" cy="410.0" r="7.2"/><circle cx="190.0" cy="410.0" r="7.2"/><circle cx="270.0" cy="410.0" r="7.2"/><circle cx="310.0" cy="410.0" r="7.2"/><circle cx="330.0" cy="410.0" r="7.2"/><circle cx="350.0" cy="410.0" r="7.2"/><circle cx="410.0" cy="410.0" r="7.2"/><circle cx="470.0" cy="410.0" r="7.2"/><circle cx="570.0" cy="410.0" r="7.2"/><circle cx="610.0" cy="410.0" r="7.2"/><circle cx="230.0" cy="430.0" r="7.2"/><circle cx="270.0" cy="430.0" r="7.2"/><circle cx="310.0" cy="430.0" r="7.2"/><circle cx="350.0" cy="430.0" r="7.2"/><circle cx="390.0" cy="430.0" r="7.2"/><circle cx="410.0" cy="430.0" r="7.2"/><circle cx="490.0" cy="430.0" r="7.2"/><circle cx="590.0" cy="430.0" r="7.2"/><circle cx="610.0" cy="430.0" r="7.2"/><circle cx="50.0" cy="450.0" r="7.2"/><circle cx="70.0" cy="450.0" r="7.2"/><circle cx="90.0" cy="450.0" r="7.2"/><circle cx="110.0" cy="450.0" r="7.2"/><circle cx="130.0" cy="450.0" r="7.2"/><circle cx="150.0" cy="450.0" r="7.2"/><circle cx="170.0" cy="450.0" r="7.2"/><circle cx="190.0" cy="450.0" r="7.2"/><circle cx="210.0" cy="450.0" r="7.2"/><circle cx="230.0" cy="450.0" r="7.2"/><circle cx="250.0" cy="450.0" r="7.2"/><circle cx="310.0" cy="450.0" r="7.2"/><circle cx="350.0" cy="450.0" r="7.2"/><circle cx="390.0" cy="450.0" r="7.2"/><circle cx="430.0" cy="450.0" r="7.2"/><circle cx="450.0" cy="450.0" r="7.2"/><circle cx="470.0" cy="450.0" r="7.2"/><circle cx="490.0" cy="450.0" r="7.2"/><circle cx="510.0" cy="450.0" r="7.2"/><circle cx="530.0" cy="450.0" r="7.2"/><circle cx="550.0" cy="450.0" r="7.2"/><circle cx="610.0" cy="450.0" r="7.2"/><circle cx="210.0" cy="470.0" r="7.2"/><circle cx="290.0" cy="470.0" r="7.2"/><circle cx="310.0" cy="470.0" r="7.2"/><circle cx="330.0" cy="470.0" r="7.2"/><circle cx="350.0" cy="470.0" r="7.2"/><circle cx="450.0" cy="470.0" r="7.2"/><circle cx="530.0" cy="470.0" r="7.2"/><circle cx="610.0" cy="470.0" r="7.2"/><circle cx="50.0" cy="490.0" r="7.2"/><circle cx="70.0" cy="490.0" r="7.2"/><circle cx="90.0" cy="490.0" r="7.2"/><circle cx="110.0" cy="490.0" r="7.2"/><circle cx="130.0" cy="490.0" r="7.2"/><circle cx="150.0" cy="490.0" r="7.2"/><circle cx="170.0" cy="490.0" r="7.2"/><circle cx="210.0" cy="490.0" r="7.2"/><circle cx="350.0" cy="490.0" r="7.2"/><circle cx="370.0" cy="490.0" r="7.2"/><circle cx="430.0" cy="490.0" r="7.2"/><circle cx="450.0" cy="490.0" r="7.2"/><circle cx="490.0" cy="490.0" r="7.2"/><circle cx="530.0" cy="490.0" r="7.2"/><circle cx="550.0" cy="490.0" r="7.2"/><circle cx="570.0" cy="490.0" r="7.2"/><circle cx="610.0" cy="490.0" r="7.2"/><circle cx="50.0" cy="510.0" r="7.2"/><circle cx="170.0" cy="510.0" r="7.2"/><circle cx="250.0" cy="510.0" r="7.2"/><circle cx="330.0" cy="510.0" r="7.2"/><circle cx="370.0" cy="510.0" r="7.2"/><circle cx="390.0" cy="510.0" r="7.2"/><circle cx="430.0" cy="510.0" r="7.2"/><circle cx="450.0" cy="510.0" r="7.2"/><circle cx="530.0" cy="510.0" r="7.2"/><circle cx="590.0" cy="510.0" r="7.2"/><circle cx="170.0" cy="530.0" r="7.2"/><circle cx="210.0" cy="530.0" r="7.2"/><circle cx="270.0" cy="530.0" r="7.2"/><circle cx="310.0" cy="530.0" r="7.2"/><circle cx="330.0" cy="530.0" r="7.2"/><circle cx="370.0" cy="530.0" r="7.2"/><circle cx="390.0" cy="530.0" r="7.2"/><circle cx="430.0" cy="530.0" r="7.2"/><circle cx="450.0" cy="530.0" r="7.2"/><circle cx="470.0" cy="530.0" r="7.2"/><circle cx="490.0" cy="530.0" r="7.2"/><circle cx="510.0" cy="530.0" r="7.2"/><circle cx="530.0" cy="530.0" r="7.2"/><circle cx="550.0" cy="530.0" r="7.2"/><circle cx="590.0" cy="530.0" r="7.2"/><circle cx="170.0" cy="550.0" r="7.2"/><circle cx="230.0" cy="550.0" r="7.2"/><circle cx="290.0" cy="550.0" r="7.2"/><circle cx="350.0" cy="550.0" r="7.2"/><circle cx="370.0" cy="550.0" r="7.2"/><circle cx="390.0" cy="550.0" r="7.2"/><circle cx="410.0" cy="550.0" r="7.2"/><circle cx="450.0" cy="550.0" r="7.2"/><circle cx="610.0" cy="550.0" r="7.2"/><circle cx="170.0" cy="570.0" r="7.2"/><circle cx="330.0" cy="570.0" r="7.2"/><circle cx="350.0" cy="570.0" r="7.2"/><circle cx="410.0" cy="570.0" r="7.2"/><circle cx="470.0" cy="570.0" r="7.2"/><circle cx="550.0" cy="570.0" r="7.2"/><circle cx="570.0" cy="570.0" r="7.2"/><circle cx="590.0" cy="570.0" r="7.2"/><circle cx="610.0" cy="570.0" r="7.2"/><circle cx="170.0" cy="590.0" r="7.2"/><circle cx="230.0" cy="590.0" r="7.2"/><circle cx="250.0" cy="590.0" r="7.2"/><circle cx="290.0" cy="590.0" r="7.2"/><circle cx="310.0" cy="590.0" r="7.2"/><circle cx="330.0" cy="590.0" r="7.2"/><circle cx="350.0" cy="590.0" r="7.2"/><circle cx="390.0" cy="590.0" r="7.2"/><circle cx="450.0" cy="590.0" r="7.2"/><circle cx="530.0" cy="590.0" r="7.2"/><circle cx="550.0" cy="590.0" r="7.2"/><circle cx="590.0" cy="590.0" r="7.2"/><circle cx="610.0" cy="590.0" r="7.2"/><circle cx="150.0" cy="610.0" r="7.2"/><circle cx="170.0" cy="610.0" r="7.2"/><circle cx="210.0" cy="610.0" r="7.2"/><circle cx="390.0" cy="610.0" r="7.2"/><circle cx="450.0" cy="610.0" r="7.2"/><circle cx="490.0" cy="610.0" r="7.2"/><circle cx="550.0" cy="610.0" r="7.2"/><circle cx="590.0" cy="610.0" r="7.2"/><rect x="10.0" y="10.0" width="120" height="120" rx="28.0" fill="none" stroke="currentColor" stroke-width="18.0"/><rect x="44.0" y="44.0" width="52.0" height="52.0" rx="18.0"/><rect x="530.0" y="10.0" width="120" height="120" rx="28.0" fill="none" stroke="currentColor" stroke-width="18.0"/><rect x="564.0" y="44.0" width="52.0" height="52.0" rx="18.0"/><rect x="10.0" y="530.0" width="120" height="120" rx="28.0" fill="none" stroke="currentColor" stroke-width="18.0"/><rect x="44.0" y="564.0" width="52.0" height="52.0" rx="18.0"/></svg>